<?xml version="1.0" encoding="utf-8"?>
<!-- Svg Vector Icons : http://www.onlinewebfonts.com/icon -->
<!DOCTYPE svg PUBLIC "-//W3C//DTD SVG 1.1//EN" "http://www.w3.org/Graphics/SVG/1.1/DTD/svg11.dtd">
<svg version="1.1" xmlns="http://www.w3.org/2000/svg" xmlns:xlink="http://www.w3.org/1999/xlink" x="0px" y="0px" viewBox="0 0 1000 1000" enable-background="new 0 0 1000 1000" xml:space="preserve">
<metadata> Svg Vector Icons : http://www.onlinewebfonts.com/icon </metadata>
<g><g transform="translate(0.000000,512.000000) scale(0.100000,-0.100000)"><path d="M4513.7,4998.4c-402-34.5-815.5-141.7-1133.3-291c-359.9-170.4-635.6-409.7-760-662.4l-70.8-139.7V1634.9V-635.5l53.6-114.9c63.2-130.2,178-243.1,308.2-302.5c70.8-32.5,139.8-42.1,350.3-51.7l262.3-9.6l-698.7-1675c-382.9-920.8-727.5-1745.9-763.8-1832l-65.1-158.9H2318h323.5l90,216.3c49.8,116.8,107.2,254.6,128.3,306.3l40.2,90l2098.1-3.8l2098.1-5.7l124.4-300.5l124.4-302.5h329.3h329.3l-30.7,72.7c-15.3,38.3-356.1,850-756.2,1803.3c-400.1,953.3-731.3,1745.9-737,1763.1c-7.6,28.7,19.2,32.5,247,40.2c208.7,5.7,269.9,13.4,342.7,47.9c132.1,59.3,245,172.3,308.2,302.5l53.6,114.9v2270.4v2270.4l-68.9,137.8c-126.4,252.7-404,493.9-761.9,664.3C6058.6,4964,5304.4,5069.3,4513.7,4998.4z M5438.4,4370.5c101.5-49.8,158.9-149.3,158.9-268c0-118.7-57.4-218.2-158.9-268c-65.1-34.5-112.9-38.3-447.9-38.3c-335,0-382.9,3.8-448,38.3c-210.6,107.2-214.4,425-5.7,536c63.2,32.5,113,36.4,449.9,38.3C5327.3,4408.8,5373.3,4405,5438.4,4370.5z M6791.8,3143.4c34.5-38.3,36.4-82.3,36.4-895.9c0-974.4,7.7-920.8-168.5-1052.9C6179.2,832.8,5361.8,664.4,4540.5,762c-428.8,49.8-794.4,166.6-1098.8,350.3c-174.2,105.3-250.8,183.8-279.5,291c-13.4,49.8-19.1,352.2-15.3,888.3c5.7,767.6,7.7,813.6,42.1,851.9l36.4,40.2h1765h1765L6791.8,3143.4z M3600.6,82.4c101.5-49.8,158.9-149.3,158.9-268c0-118.7-57.4-218.2-158.9-268c-206.7-107.2-442.2,36.4-442.2,268C3158.4,48,3391.9,189.6,3600.6,82.4z M6663.6,82.4c101.4-49.8,158.9-149.3,158.9-268c0-118.7-57.4-218.2-158.9-268c-206.8-107.2-442.2,36.4-442.2,268C6221.3,48,6454.9,189.6,6663.6,82.4z M6033.7-1634.8c120.6-291,235.4-566.6,252.7-612.6l34.5-82.3H4992.3H3665.7l237.4,570.5c132.1,312.1,246.9,587.7,256.5,612.6l17.2,42.1h817.4h819.3L6033.7-1634.8z M6705.7-3244.7l126.3-300.5l-1828.2-5.7c-1006.9-1.9-1832,0-1835.9,3.8c-3.8,3.8,36.4,112.9,90,243.1c55.5,130.2,111,266.1,126.3,300.6l24.9,61.3h1585.1h1585.1L6705.7-3244.7z"/></g></g>
</svg>